<?xml version="1.0" encoding="utf-8"?>
<svg version="1.1" xmlns:xlink="http://www.w3.org/1999/xlink" width="27px" height="30px" xmlns="http://www.w3.org/2000/svg">
  <g transform="matrix(1 0 0 1 -331 -3 )">
    <path d="M 16.55859375 18.3984375  C 17.981069711538463 16.817908653846153  18.692307692307693 14.915865384615383  18.692307692307693 12.692307692307693  C 18.692307692307693 10.468749999999998  17.981069711538463 8.56670673076923  16.55859375 6.986177884615384  C 15.13611778846154 5.4056490384615365  13.424278846153847 4.615384615384616  11.423076923076923 4.615384615384616  C 9.421875000000002 4.615384615384616  7.710036057692309 5.4056490384615365  6.287560096153846 6.986177884615384  C 4.865084134615385 8.56670673076923  4.153846153846154 10.468749999999998  4.153846153846154 12.692307692307693  C 4.153846153846154 14.915865384615383  4.865084134615385 16.817908653846153  6.287560096153846 18.3984375  C 7.710036057692309 19.97896634615384  9.421875000000002 20.76923076923077  11.423076923076923 20.76923076923077  C 13.424278846153847 20.76923076923077  15.13611778846154 19.97896634615384  16.55859375 18.3984375  Z M 26.399639423076923 26.069711538461537  C 26.79987980769231 26.51442307692308  27 27.055288461538463  27 27.692307692307693  C 27 28.317307692307693  26.794471153846157 28.85817307692308  26.383413461538463 29.314903846153847  C 25.97235576923077 29.771634615384613  25.485576923076927 30  24.923076923076923 30  C 24.338942307692307 30  23.852163461538463 29.771634615384613  23.462740384615383 29.314903846153847  L 17.897235576923077 23.149038461538463  C 15.960937500000002 24.63942307692308  13.802884615384617 25.384615384615383  11.423076923076923 25.384615384615383  C 9.876201923076923 25.384615384615383  8.396935096153847 25.05108173076923  6.985276442307692 24.384014423076927  C 5.573617788461538 23.716947115384617  4.356670673076923 22.815504807692307  3.3344350961538463 21.6796875  C 2.312199519230769 20.543870192307693  1.5009014423076925 19.19170673076923  0.9005408653846154 17.623197115384617  C 0.3001802884615385 16.0546875  0 14.41105769230769  0 12.692307692307693  C 0 10.973557692307688  0.3001802884615385 9.329927884615385  0.9005408653846154 7.761418269230768  C 1.5009014423076925 6.192908653846153  2.312199519230769 4.840745192307693  3.3344350961538463 3.704927884615384  C 4.356670673076923 2.5691105769230784  5.573617788461538 1.6676682692307687  6.985276442307692 1.0006009615384626  C 8.396935096153847 0.3335336538461531  9.876201923076923 0  11.423076923076923 0  C 12.969951923076923 0  14.44921875 0.3335336538461531  15.860877403846153 1.0006009615384626  C 17.272536057692307 1.6676682692307687  18.489483173076923 2.5691105769230784  19.51171875 3.704927884615384  C 20.533954326923077 4.840745192307693  21.345252403846153 6.192908653846153  21.94561298076923 7.761418269230768  C 22.545973557692307 9.329927884615385  22.846153846153847 10.973557692307688  22.846153846153847 12.692307692307693  C 22.846153846153847 15.33653846153846  22.17548076923077 17.734374999999996  20.834134615384617 19.885817307692307  L 26.399639423076923 26.069711538461537  Z " fill-rule="nonzero" fill="#777777" stroke="none" transform="matrix(1 0 0 1 331 3 )" />
  </g>
</svg>